<svg xmlns="http://www.w3.org/2000/svg" viewBox="0 0 1100 700" width="1100" height="700" font-family="'Segoe UI', system-ui, sans-serif">
  <defs>
    <!-- Background gradient -->
    <linearGradient id="bg" x1="0" y1="0" x2="0" y2="1">
      <stop offset="0%" stop-color="#0D1117"/>
      <stop offset="100%" stop-color="#0F1923"/>
    </linearGradient>
    <!-- Card gradients -->
    <linearGradient id="orchGrad" x1="0" y1="0" x2="0" y2="1">
      <stop offset="0%" stop-color="#00D4B4" stop-opacity="0.18"/>
      <stop offset="100%" stop-color="#00D4B4" stop-opacity="0.05"/>
    </linearGradient>
    <linearGradient id="sentGrad" x1="0" y1="0" x2="0" y2="1">
      <stop offset="0%" stop-color="#3B82F6" stop-opacity="0.18"/>
      <stop offset="100%" stop-color="#3B82F6" stop-opacity="0.05"/>
    </linearGradient>
    <linearGradient id="docGrad" x1="0" y1="0" x2="0" y2="1">
      <stop offset="0%" stop-color="#8B5CF6" stop-opacity="0.18"/>
      <stop offset="100%" stop-color="#8B5CF6" stop-opacity="0.05"/>
    </linearGradient>
    <linearGradient id="scoutGrad" x1="0" y1="0" x2="0" y2="1">
      <stop offset="0%" stop-color="#F59E0B" stop-opacity="0.18"/>
      <stop offset="100%" stop-color="#F59E0B" stop-opacity="0.05"/>
    </linearGradient>
    <linearGradient id="compGrad" x1="0" y1="0" x2="0" y2="1">
      <stop offset="0%" stop-color="#10B981" stop-opacity="0.18"/>
      <stop offset="100%" stop-color="#10B981" stop-opacity="0.05"/>
    </linearGradient>
    <linearGradient id="faisGrad" x1="0" y1="0" x2="0" y2="1">
      <stop offset="0%" stop-color="#EC4899" stop-opacity="0.15"/>
      <stop offset="100%" stop-color="#EC4899" stop-opacity="0.04"/>
    </linearGradient>
    <linearGradient id="feGrad" x1="0" y1="0" x2="0" y2="1">
      <stop offset="0%" stop-color="#00D4B4" stop-opacity="0.10"/>
      <stop offset="100%" stop-color="#00D4B4" stop-opacity="0.03"/>
    </linearGradient>
    <!-- Arrow marker -->
    <marker id="arrow-teal" markerWidth="8" markerHeight="8" refX="6" refY="3" orient="auto">
      <path d="M0,0 L0,6 L8,3 z" fill="#00D4B4" opacity="0.7"/>
    </marker>
    <marker id="arrow-blue" markerWidth="8" markerHeight="8" refX="6" refY="3" orient="auto">
      <path d="M0,0 L0,6 L8,3 z" fill="#3B82F6" opacity="0.7"/>
    </marker>
    <marker id="arrow-purple" markerWidth="8" markerHeight="8" refX="6" refY="3" orient="auto">
      <path d="M0,0 L0,6 L8,3 z" fill="#8B5CF6" opacity="0.7"/>
    </marker>
    <marker id="arrow-amber" markerWidth="8" markerHeight="8" refX="6" refY="3" orient="auto">
      <path d="M0,0 L0,6 L8,3 z" fill="#F59E0B" opacity="0.7"/>
    </marker>
    <marker id="arrow-green" markerWidth="8" markerHeight="8" refX="6" refY="3" orient="auto">
      <path d="M0,0 L0,6 L8,3 z" fill="#10B981" opacity="0.7"/>
    </marker>
    <marker id="arrow-pink" markerWidth="8" markerHeight="8" refX="6" refY="3" orient="auto">
      <path d="M0,0 L0,6 L8,3 z" fill="#EC4899" opacity="0.7"/>
    </marker>
    <marker id="arrow-muted" markerWidth="8" markerHeight="8" refX="6" refY="3" orient="auto">
      <path d="M0,0 L0,6 L8,3 z" fill="#64748B" opacity="0.7"/>
    </marker>
    <!-- Glow filter -->
    <filter id="glow-teal" x="-30%" y="-30%" width="160%" height="160%">
      <feGaussianBlur stdDeviation="3" result="blur"/>
      <feMerge><feMergeNode in="blur"/><feMergeNode in="SourceGraphic"/></feMerge>
    </filter>
    <filter id="shadow" x="-5%" y="-5%" width="110%" height="120%">
      <feDropShadow dx="0" dy="2" stdDeviation="4" flood-color="#000" flood-opacity="0.4"/>
    </filter>
  </defs>

  <!-- Background -->
  <rect width="1100" height="700" fill="url(#bg)"/>
  <!-- Subtle grid lines -->
  <g stroke="#1E293B" stroke-width="1" opacity="0.4">
    <line x1="0" y1="100" x2="1100" y2="100"/>
    <line x1="0" y1="200" x2="1100" y2="200"/>
    <line x1="0" y1="300" x2="1100" y2="300"/>
    <line x1="0" y1="400" x2="1100" y2="400"/>
    <line x1="0" y1="500" x2="1100" y2="500"/>
    <line x1="0" y1="600" x2="1100" y2="600"/>
    <line x1="100" y1="0" x2="100" y2="700"/>
    <line x1="275" y1="0" x2="275" y2="700"/>
    <line x1="450" y1="0" x2="450" y2="700"/>
    <line x1="625" y1="0" x2="625" y2="700"/>
    <line x1="800" y1="0" x2="800" y2="700"/>
    <line x1="975" y1="0" x2="975" y2="700"/>
  </g>

  <!-- ═══════════════════════════════════════════════════════════ -->
  <!-- TITLE -->
  <!-- ═══════════════════════════════════════════════════════════ -->
  <text x="550" y="36" text-anchor="middle" font-size="22" font-weight="700" fill="#00D4B4" filter="url(#glow-teal)">WealthRadar</text>
  <text x="550" y="56" text-anchor="middle" font-size="12" fill="#64748B" letter-spacing="2">MULTI-AGENT ARCHITECTURE · AMAZON NOVA AI HACKATHON · #AmazonNova</text>

  <!-- ═══════════════════════════════════════════════════════════ -->
  <!-- FRONTEND (left column) -->
  <!-- ═══════════════════════════════════════════════════════════ -->
  <g filter="url(#shadow)">
    <rect x="20" y="80" width="160" height="200" rx="10" fill="url(#feGrad)" stroke="#00D4B4" stroke-width="1" stroke-opacity="0.3"/>
  </g>
  <text x="100" y="103" text-anchor="middle" font-size="10" font-weight="600" fill="#00D4B4" letter-spacing="1">FRONTEND</text>
  <text x="100" y="118" text-anchor="middle" font-size="9" fill="#64748B">Next.js 14 · TypeScript</text>
  <!-- FE items -->
  <rect x="32" y="128" width="136" height="22" rx="4" fill="#1E293B"/>
  <text x="100" y="143" text-anchor="middle" font-size="9" fill="#CBD5E1">📊 Dashboard</text>
  <rect x="32" y="156" width="136" height="22" rx="4" fill="#1E293B"/>
  <text x="100" y="171" text-anchor="middle" font-size="9" fill="#CBD5E1">👤 Client Detail (4 tabs)</text>
  <rect x="32" y="184" width="136" height="22" rx="4" fill="#1E293B"/>
  <text x="100" y="199" text-anchor="middle" font-size="9" fill="#CBD5E1">🔍 Semantic Search</text>
  <rect x="32" y="212" width="136" height="22" rx="4" fill="#1E293B"/>
  <text x="100" y="227" text-anchor="middle" font-size="9" fill="#CBD5E1">📋 Meeting Prep</text>
  <!-- SSE label -->
  <text x="100" y="256" text-anchor="middle" font-size="8" fill="#00D4B4">SSE · WebSocket</text>
  <text x="100" y="268" text-anchor="middle" font-size="8" fill="#64748B">Recharts · TanStack</text>

  <!-- FE → API arrow -->
  <line x1="180" y1="180" x2="216" y2="180" stroke="#00D4B4" stroke-width="1.5" stroke-dasharray="4,3" marker-end="url(#arrow-teal)" opacity="0.7"/>
  <text x="198" y="175" text-anchor="middle" font-size="7" fill="#00D4B4">HTTP/SSE</text>

  <!-- ═══════════════════════════════════════════════════════════ -->
  <!-- FASTAPI (second column) -->
  <!-- ═══════════════════════════════════════════════════════════ -->
  <g filter="url(#shadow)">
    <rect x="220" y="80" width="160" height="200" rx="10" fill="url(#feGrad)" stroke="#00D4B4" stroke-width="1" stroke-opacity="0.3"/>
  </g>
  <text x="300" y="103" text-anchor="middle" font-size="10" font-weight="600" fill="#00D4B4" letter-spacing="1">FASTAPI BACKEND</text>
  <text x="300" y="118" text-anchor="middle" font-size="9" fill="#64748B">Python 3.12 · uvicorn</text>
  <rect x="232" y="128" width="136" height="18" rx="4" fill="#1E293B"/>
  <text x="300" y="141" text-anchor="middle" font-size="8.5" fill="#CBD5E1">/api/clients (CRUD)</text>
  <rect x="232" y="150" width="136" height="18" rx="4" fill="#1E293B"/>
  <text x="300" y="163" text-anchor="middle" font-size="8.5" fill="#CBD5E1">/api/portfolio/:id/drift</text>
  <rect x="232" y="172" width="136" height="18" rx="4" fill="#1E293B"/>
  <text x="300" y="185" text-anchor="middle" font-size="8.5" fill="#CBD5E1">/api/agents/daily-scan (SSE)</text>
  <rect x="232" y="194" width="136" height="18" rx="4" fill="#1E293B"/>
  <text x="300" y="207" text-anchor="middle" font-size="8.5" fill="#CBD5E1">/api/agents/meeting-prep</text>
  <rect x="232" y="216" width="136" height="18" rx="4" fill="#1E293B"/>
  <text x="300" y="229" text-anchor="middle" font-size="8.5" fill="#CBD5E1">/api/search (FAISS)</text>
  <text x="300" y="256" text-anchor="middle" font-size="8" fill="#64748B">13 endpoints · Pydantic v2</text>
  <text x="300" y="268" text-anchor="middle" font-size="8" fill="#64748B">asyncio thread pool</text>

  <!-- API → Orchestrator arrow -->
  <line x1="380" y1="180" x2="416" y2="180" stroke="#00D4B4" stroke-width="1.5" marker-end="url(#arrow-teal)" opacity="0.7"/>
  <text x="398" y="175" text-anchor="middle" font-size="7" fill="#00D4B4">invoke</text>

  <!-- ═══════════════════════════════════════════════════════════ -->
  <!-- ORCHESTRATOR (center) -->
  <!-- ═══════════════════════════════════════════════════════════ -->
  <g filter="url(#shadow)">
    <rect x="420" y="110" width="180" height="140" rx="12" fill="url(#orchGrad)" stroke="#00D4B4" stroke-width="1.5"/>
  </g>
  <!-- Glow ring -->
  <rect x="417" y="107" width="186" height="146" rx="14" fill="none" stroke="#00D4B4" stroke-width="0.5" stroke-opacity="0.3"/>

  <text x="510" y="134" text-anchor="middle" font-size="11" font-weight="700" fill="#00D4B4">🎯 ORCHESTRATOR</text>
  <text x="510" y="150" text-anchor="middle" font-size="9" fill="#94A3B8">Strands Supervisor Agent</text>
  <text x="510" y="164" text-anchor="middle" font-size="9" fill="#94A3B8">Nova 2 Lite · temperature=0</text>

  <!-- tools list -->
  <rect x="434" y="172" width="152" height="16" rx="3" fill="#0F2027"/>
  <text x="510" y="183" text-anchor="middle" font-size="8" fill="#00D4B4">@tool sentinel_scan</text>
  <rect x="434" y="192" width="152" height="16" rx="3" fill="#0F2027"/>
  <text x="510" y="203" text-anchor="middle" font-size="8" fill="#00D4B4">@tool analyze_documents</text>
  <rect x="434" y="212" width="152" height="16" rx="3" fill="#0F2027"/>
  <text x="510" y="223" text-anchor="middle" font-size="8" fill="#00D4B4">@tool gather_external_data</text>
  <rect x="434" y="232" width="152" height="16" rx="3" fill="#0F2027"/>
  <text x="510" y="243" text-anchor="middle" font-size="8" fill="#00D4B4">@tool compose_deliverable</text>

  <!-- ═══════════════════════════════════════════════════════════ -->
  <!-- 4 AGENT BOXES (row below orchestrator) -->
  <!-- ═══════════════════════════════════════════════════════════ -->

  <!-- --- SENTINEL --- -->
  <g filter="url(#shadow)">
    <rect x="60" y="340" width="170" height="165" rx="10" fill="url(#sentGrad)" stroke="#3B82F6" stroke-width="1.2"/>
  </g>
  <text x="145" y="363" text-anchor="middle" font-size="11" font-weight="700" fill="#3B82F6">🔍 SENTINEL</text>
  <text x="145" y="378" text-anchor="middle" font-size="8.5" fill="#64748B">Portfolio Monitor</text>
  <rect x="72" y="387" width="146" height="14" rx="3" fill="#0F1F35"/>
  <text x="145" y="398" text-anchor="middle" font-size="7.5" fill="#93C5FD">12 trigger detectors</text>
  <rect x="72" y="405" width="146" height="14" rx="3" fill="#0F1F35"/>
  <text x="145" y="416" text-anchor="middle" font-size="7.5" fill="#93C5FD">compound priority scoring</text>
  <rect x="72" y="423" width="146" height="14" rx="3" fill="#0F1F35"/>
  <text x="145" y="434" text-anchor="middle" font-size="7.5" fill="#93C5FD">50-client parallel scan</text>
  <rect x="72" y="441" width="146" height="14" rx="3" fill="#0F1F35"/>
  <text x="145" y="452" text-anchor="middle" font-size="7.5" fill="#93C5FD">IRS/wash-sale rule engine</text>
  <text x="145" y="472" text-anchor="middle" font-size="7.5" fill="#64748B">Nova 2 Lite · temp=0</text>
  <text x="145" y="485" text-anchor="middle" font-size="7.5" fill="#64748B">trigger_engine.py</text>
  <text x="145" y="498" text-anchor="middle" font-size="7.5" fill="#64748B">sentinel_agent.py</text>

  <!-- --- DOC AGENT --- -->
  <g filter="url(#shadow)">
    <rect x="265" y="340" width="170" height="165" rx="10" fill="url(#docGrad)" stroke="#8B5CF6" stroke-width="1.2"/>
  </g>
  <text x="350" y="363" text-anchor="middle" font-size="11" font-weight="700" fill="#8B5CF6">📄 DOC AGENT</text>
  <text x="350" y="378" text-anchor="middle" font-size="8.5" fill="#64748B">Document Intelligence</text>
  <rect x="277" y="387" width="146" height="14" rx="3" fill="#1A0F35"/>
  <text x="350" y="398" text-anchor="middle" font-size="7.5" fill="#C4B5FD">Trust PDF analysis</text>
  <rect x="277" y="405" width="146" height="14" rx="3" fill="#1A0F35"/>
  <text x="350" y="416" text-anchor="middle" font-size="7.5" fill="#C4B5FD">Account statement parsing</text>
  <rect x="277" y="423" width="146" height="14" rx="3" fill="#1A0F35"/>
  <text x="350" y="434" text-anchor="middle" font-size="7.5" fill="#C4B5FD">Insurance policy review</text>
  <rect x="277" y="441" width="146" height="14" rx="3" fill="#1A0F35"/>
  <text x="350" y="452" text-anchor="middle" font-size="7.5" fill="#C4B5FD">FAISS embedding indexing</text>
  <text x="350" y="472" text-anchor="middle" font-size="7.5" fill="#64748B">Nova 2 Lite multimodal</text>
  <text x="350" y="485" text-anchor="middle" font-size="7.5" fill="#64748B">thinking_level='medium'</text>
  <text x="350" y="498" text-anchor="middle" font-size="7.5" fill="#64748B">doc_agent.py</text>

  <!-- --- SCOUT AGENT --- -->
  <g filter="url(#shadow)">
    <rect x="665" y="340" width="170" height="165" rx="10" fill="url(#scoutGrad)" stroke="#F59E0B" stroke-width="1.2"/>
  </g>
  <text x="750" y="363" text-anchor="middle" font-size="11" font-weight="700" fill="#F59E0B">🌐 SCOUT</text>
  <text x="750" y="378" text-anchor="middle" font-size="8.5" fill="#64748B">Browser Automation</text>
  <rect x="677" y="387" width="146" height="14" rx="3" fill="#201500"/>
  <text x="750" y="398" text-anchor="middle" font-size="7.5" fill="#FCD34D">treasury.gov yield curve</text>
  <rect x="677" y="405" width="146" height="14" rx="3" fill="#201500"/>
  <text x="750" y="416" text-anchor="middle" font-size="7.5" fill="#FCD34D">SEC EDGAR filings</text>
  <rect x="677" y="423" width="146" height="14" rx="3" fill="#201500"/>
  <text x="750" y="434" text-anchor="middle" font-size="7.5" fill="#FCD34D">Mock broker portal</text>
  <rect x="677" y="441" width="146" height="14" rx="3" fill="#201500"/>
  <text x="750" y="452" text-anchor="middle" font-size="7.5" fill="#FCD34D">Pydantic schema extraction</text>
  <text x="750" y="472" text-anchor="middle" font-size="7.5" fill="#64748B">Nova Act SDK</text>
  <text x="750" y="485" text-anchor="middle" font-size="7.5" fill="#64748B">act() + act_get()</text>
  <text x="750" y="498" text-anchor="middle" font-size="7.5" fill="#64748B">scout_agent.py</text>

  <!-- --- COMPOSER --- -->
  <g filter="url(#shadow)">
    <rect x="865" y="340" width="170" height="165" rx="10" fill="url(#compGrad)" stroke="#10B981" stroke-width="1.2"/>
  </g>
  <text x="950" y="363" text-anchor="middle" font-size="11" font-weight="700" fill="#10B981">✍️ COMPOSER</text>
  <text x="950" y="378" text-anchor="middle" font-size="8.5" fill="#64748B">Content Generation</text>
  <rect x="877" y="387" width="146" height="14" rx="3" fill="#001A10"/>
  <text x="950" y="398" text-anchor="middle" font-size="7.5" fill="#6EE7B7">Meeting prep package</text>
  <rect x="877" y="405" width="146" height="14" rx="3" fill="#001A10"/>
  <text x="950" y="416" text-anchor="middle" font-size="7.5" fill="#6EE7B7">Outreach email drafts</text>
  <rect x="877" y="423" width="146" height="14" rx="3" fill="#001A10"/>
  <text x="950" y="434" text-anchor="middle" font-size="7.5" fill="#6EE7B7">Cohort campaign plans</text>
  <rect x="877" y="441" width="146" height="14" rx="3" fill="#001A10"/>
  <text x="950" y="452" text-anchor="middle" font-size="7.5" fill="#6EE7B7">Approval workflow</text>
  <text x="950" y="472" text-anchor="middle" font-size="7.5" fill="#64748B">Nova 2 Lite · temp=0.7</text>
  <text x="950" y="485" text-anchor="middle" font-size="7.5" fill="#64748B">Strands @tool</text>
  <text x="950" y="498" text-anchor="middle" font-size="7.5" fill="#64748B">composer_agent.py</text>

  <!-- ═══════════════════════════════════════════════════════════ -->
  <!-- ORCHESTRATOR → AGENTS arrows (down) -->
  <!-- ═══════════════════════════════════════════════════════════ -->
  <!-- Orch → Sentinel -->
  <path d="M470,250 L145,340" stroke="#3B82F6" stroke-width="1.5" fill="none" stroke-dasharray="5,3" marker-end="url(#arrow-blue)" opacity="0.6"/>
  <!-- Orch → Doc -->
  <path d="M490,250 L350,340" stroke="#8B5CF6" stroke-width="1.5" fill="none" stroke-dasharray="5,3" marker-end="url(#arrow-purple)" opacity="0.6"/>
  <!-- Orch → Scout -->
  <path d="M530,250 L750,340" stroke="#F59E0B" stroke-width="1.5" fill="none" stroke-dasharray="5,3" marker-end="url(#arrow-amber)" opacity="0.6"/>
  <!-- Orch → Composer -->
  <path d="M550,250 L950,340" stroke="#10B981" stroke-width="1.5" fill="none" stroke-dasharray="5,3" marker-end="url(#arrow-green)" opacity="0.6"/>

  <!-- Return arrows (agents → orch, lighter) -->
  <path d="M185,340 L478,252" stroke="#3B82F6" stroke-width="1" fill="none" opacity="0.3" marker-end="url(#arrow-blue)"/>
  <path d="M380,340 L496,252" stroke="#8B5CF6" stroke-width="1" fill="none" opacity="0.3" marker-end="url(#arrow-purple)"/>
  <path d="M720,340 L532,252" stroke="#F59E0B" stroke-width="1" fill="none" opacity="0.3" marker-end="url(#arrow-amber)"/>
  <path d="M900,340 L558,252" stroke="#10B981" stroke-width="1" fill="none" opacity="0.3" marker-end="url(#arrow-green)"/>

  <!-- ═══════════════════════════════════════════════════════════ -->
  <!-- FAISS + EMBEDDINGS (bottom center) -->
  <!-- ═══════════════════════════════════════════════════════════ -->
  <g filter="url(#shadow)">
    <rect x="420" y="570" width="280" height="100" rx="10" fill="url(#faisGrad)" stroke="#EC4899" stroke-width="1.2"/>
  </g>
  <text x="560" y="593" text-anchor="middle" font-size="11" font-weight="700" fill="#EC4899">🗄️ EMBEDDING STORE</text>
  <text x="560" y="608" text-anchor="middle" font-size="9" fill="#64748B">FAISS IndexFlatIP · 1,024-dim · 1,432 vectors</text>
  <!-- Two sub-boxes -->
  <rect x="432" y="614" width="118" height="42" rx="5" fill="#1C0825"/>
  <text x="491" y="630" text-anchor="middle" font-size="8" fill="#F9A8D4" font-weight="600">Nova Multimodal</text>
  <text x="491" y="643" text-anchor="middle" font-size="7.5" fill="#F9A8D4">Embeddings v1</text>
  <text x="491" y="653" text-anchor="middle" font-size="7" fill="#64748B">1024-dim vectors</text>
  <rect x="570" y="614" width="118" height="42" rx="5" fill="#1C0825"/>
  <text x="629" y="630" text-anchor="middle" font-size="8" fill="#F9A8D4" font-weight="600">Cross-modal Search</text>
  <text x="629" y="643" text-anchor="middle" font-size="7.5" fill="#F9A8D4">text ↔ document</text>
  <text x="629" y="653" text-anchor="middle" font-size="7" fill="#64748B">indexer.py · search.py</text>

  <!-- Doc agent → FAISS -->
  <path d="M350,505 Q350,545 430,575" stroke="#EC4899" stroke-width="1.2" fill="none" stroke-dasharray="4,3" marker-end="url(#arrow-pink)" opacity="0.6"/>
  <text x="368" y="555" text-anchor="middle" font-size="7" fill="#EC4899" transform="rotate(-35, 368, 555)">embed</text>
  <!-- Orchestrator → FAISS (search) -->
  <path d="M510,250 Q510,400 510,570" stroke="#EC4899" stroke-width="1" fill="none" stroke-dasharray="3,3" marker-end="url(#arrow-pink)" opacity="0.35"/>

  <!-- ═══════════════════════════════════════════════════════════ -->
  <!-- DATA SOURCES (right side, external) -->
  <!-- ═══════════════════════════════════════════════════════════ -->
  <!-- External box -->
  <rect x="860" y="570" width="215" height="110" rx="8" fill="#0D1117" stroke="#334155" stroke-width="1"/>
  <text x="967" y="591" text-anchor="middle" font-size="9" font-weight="600" fill="#64748B" letter-spacing="1">EXTERNAL DATA</text>
  <rect x="872" y="598" width="90" height="18" rx="4" fill="#1E293B"/>
  <text x="917" y="611" text-anchor="middle" font-size="8" fill="#CBD5E1">🏛️ treasury.gov</text>
  <rect x="872" y="620" width="90" height="18" rx="4" fill="#1E293B"/>
  <text x="917" y="633" text-anchor="middle" font-size="8" fill="#CBD5E1">📋 SEC EDGAR</text>
  <rect x="872" y="642" width="90" height="18" rx="4" fill="#1E293B"/>
  <text x="917" y="655" text-anchor="middle" font-size="8" fill="#CBD5E1">🖥️ Mock Portal :8080</text>
  <rect x="970" y="598" width="90" height="62" rx="4" fill="#1E293B"/>
  <text x="1015" y="614" text-anchor="middle" font-size="8" fill="#FCD34D" font-weight="600">Nova Act SDK</text>
  <text x="1015" y="628" text-anchor="middle" font-size="7.5" fill="#94A3B8">act()</text>
  <text x="1015" y="641" text-anchor="middle" font-size="7.5" fill="#94A3B8">act_get()</text>
  <text x="1015" y="654" text-anchor="middle" font-size="7.5" fill="#94A3B8">Playwright</text>

  <!-- Scout → External -->
  <path d="M750,505 Q750,545 875,590" stroke="#F59E0B" stroke-width="1.2" fill="none" stroke-dasharray="4,3" marker-end="url(#arrow-amber)" opacity="0.6"/>

  <!-- ═══════════════════════════════════════════════════════════ -->
  <!-- LOCAL DATA (bottom left) -->
  <!-- ═══════════════════════════════════════════════════════════ -->
  <rect x="20" y="570" width="215" height="110" rx="8" fill="#0D1117" stroke="#334155" stroke-width="1"/>
  <text x="127" y="591" text-anchor="middle" font-size="9" font-weight="600" fill="#64748B" letter-spacing="1">LOCAL DATA</text>
  <rect x="32" y="598" width="90" height="18" rx="4" fill="#1E293B"/>
  <text x="77" y="611" text-anchor="middle" font-size="8" fill="#CBD5E1">👥 50 clients.json</text>
  <rect x="32" y="620" width="90" height="18" rx="4" fill="#1E293B"/>
  <text x="77" y="633" text-anchor="middle" font-size="8" fill="#CBD5E1">📈 holdings.json</text>
  <rect x="32" y="642" width="90" height="18" rx="4" fill="#1E293B"/>
  <text x="77" y="655" text-anchor="middle" font-size="8" fill="#CBD5E1">📅 transactions.json</text>
  <rect x="130" y="598" width="90" height="62" rx="4" fill="#1E293B"/>
  <text x="175" y="614" text-anchor="middle" font-size="8" fill="#6EE7B7" font-weight="600">Documents</text>
  <text x="175" y="628" text-anchor="middle" font-size="7.5" fill="#94A3B8">trust PDFs</text>
  <text x="175" y="641" text-anchor="middle" font-size="7.5" fill="#94A3B8">statements</text>
  <text x="175" y="654" text-anchor="middle" font-size="7.5" fill="#94A3B8">estate plans</text>

  <!-- Sentinel → Local data -->
  <path d="M145,505 Q127,545 127,570" stroke="#3B82F6" stroke-width="1.2" fill="none" stroke-dasharray="4,3" marker-end="url(#arrow-blue)" opacity="0.6"/>
  <!-- Doc agent → Local data (docs) -->
  <path d="M310,505 Q240,545 175,570" stroke="#8B5CF6" stroke-width="1.2" fill="none" stroke-dasharray="4,3" marker-end="url(#arrow-purple)" opacity="0.5"/>

  <!-- ═══════════════════════════════════════════════════════════ -->
  <!-- NOVA 2 LITE badge (floating, top right) -->
  <!-- ═══════════════════════════════════════════════════════════ -->
  <rect x="870" y="80" width="205" height="90" rx="8" fill="#0D1117" stroke="#334155" stroke-width="1"/>
  <text x="972" y="100" text-anchor="middle" font-size="9" font-weight="600" fill="#64748B" letter-spacing="1">AMAZON BEDROCK</text>
  <rect x="882" y="108" width="181" height="20" rx="4" fill="#1E293B"/>
  <text x="972" y="122" text-anchor="middle" font-size="8" fill="#00D4B4">🤖 us.amazon.nova-2-lite-v1:0</text>
  <rect x="882" y="132" width="181" height="20" rx="4" fill="#1E293B"/>
  <text x="972" y="146" text-anchor="middle" font-size="8" fill="#F9A8D4">🔢 amazon.nova-2-multimodal-embeddings-v1:0</text>
  <text x="972" y="162" text-anchor="middle" font-size="7.5" fill="#64748B">Converse API · InvokeModel · us-east-1</text>

  <!-- Bedrock → agents (dashed line from badge) -->
  <line x1="870" y1="125" x2="602" y2="190" stroke="#00D4B4" stroke-width="1" stroke-dasharray="3,3" opacity="0.25"/>

  <!-- ═══════════════════════════════════════════════════════════ -->
  <!-- LEGEND (bottom center) -->
  <!-- ═══════════════════════════════════════════════════════════ -->
  <g transform="translate(395, 672)">
    <!-- solid line = agent call -->
    <line x1="0" y1="8" x2="25" y2="8" stroke="#00D4B4" stroke-width="1.5" marker-end="url(#arrow-teal)"/>
    <text x="28" y="12" font-size="8" fill="#64748B">orchestration call</text>
    <!-- dashed = data flow -->
    <line x1="115" y1="8" x2="140" y2="8" stroke="#64748B" stroke-width="1.5" stroke-dasharray="4,2" marker-end="url(#arrow-muted)"/>
    <text x="143" y="12" font-size="8" fill="#64748B">data flow</text>
    <!-- return line -->
    <line x1="212" y1="8" x2="237" y2="8" stroke="#3B82F6" stroke-width="1" opacity="0.4" marker-end="url(#arrow-blue)"/>
    <text x="240" y="12" font-size="8" fill="#64748B">result return</text>
  </g>
</svg>
